<svg width="44" height="44" viewBox="0 0 44 44" fill="none" xmlns="http://www.w3.org/2000/svg">
<g clip-path="url(#clip0_5591_72312)">
<path d="M15.6754 31.5H29.3354C31.1408 31.5 32 30.987 32 29.8585C32 27.1706 28.411 23.2823 22.5054 23.2823C16.5999 23.2823 13 27.1706 13 29.8585C13 30.987 13.8592 31.5 15.6754 31.5ZM15.1534 29.9508C14.8706 29.9508 14.751 29.879 14.751 29.6636C14.751 27.9708 17.5134 24.8315 22.5054 24.8315C27.4974 24.8315 30.2489 27.9708 30.2489 29.6636C30.2489 29.879 30.1403 29.9508 29.8575 29.9508H15.1534ZM22.5054 22C25.0938 22 27.2038 19.8353 27.2038 17.1884C27.2038 14.5621 25.1156 12.5 22.5054 12.5C19.9279 12.5 17.8071 14.6031 17.8071 17.209C17.818 19.8456 19.9279 22 22.5054 22ZM22.5054 20.4509C20.9176 20.4509 19.5581 19.0249 19.5581 17.209C19.5581 15.4239 20.8958 14.0491 22.5054 14.0491C24.1368 14.0491 25.4528 15.3931 25.4528 17.1884C25.4528 19.0043 24.1151 20.4509 22.5054 20.4509Z" fill="#A7A8AA"/>
</g>
<defs>
<clipPath id="clip0_5591_72312">
<rect width="19" height="19" fill="white" transform="translate(13 12.5)"/>
</clipPath>
</defs>
</svg>
