<svg width="44" height="44" viewBox="0 0 44 44" fill="none" xmlns="http://www.w3.org/2000/svg">
<path d="M21.6 12.4C16.3075 12.4 12 16.7076 12 22C12 27.2925 16.3075 31.6 21.6 31.6C26.8925 31.6 31.2 27.2925 31.2 22C31.2 16.7076 26.8925 12.4 21.6 12.4ZM21.6 14C22.1535 14 22.6942 14.0562 23.2156 14.1625H23.2172C23.2545 14.3426 23.3528 14.5042 23.4953 14.6203C23.6379 14.7365 23.8161 14.7999 24 14.8C24.2093 14.7996 24.4101 14.7171 24.5594 14.5703C24.9696 14.7334 25.361 14.9307 25.7344 15.1563C25.6468 15.2877 25.6 15.4421 25.6 15.6C25.6 15.8122 25.6843 16.0157 25.8343 16.1657C25.9843 16.3157 26.1878 16.4 26.4 16.4C26.5168 16.4 26.6321 16.3743 26.7379 16.3249C26.8437 16.2755 26.9375 16.2036 27.0125 16.1141C27.3746 16.4471 27.7045 16.8134 28 17.2078C28.0017 17.3629 28.0483 17.514 28.1343 17.643C28.2203 17.772 28.3419 17.8732 28.4844 17.9344C28.8198 18.5023 29.0887 19.1119 29.2766 19.7594C29.139 19.6565 28.9718 19.6006 28.8 19.6C28.5878 19.6 28.3843 19.6843 28.2343 19.8343C28.0843 19.9844 28 20.1879 28 20.4C28 20.6122 28.0843 20.8157 28.2343 20.9657C28.3843 21.1157 28.5878 21.2 28.8 21.2C28.9426 21.1998 29.0826 21.1614 29.2054 21.0889C29.3282 21.0163 29.4294 20.9123 29.4984 20.7875C29.5585 21.1839 29.6 21.5865 29.6 22C29.6 26.4278 26.0278 30 21.6 30C17.1722 30 13.6 26.4278 13.6 22C13.6 17.5723 17.1722 14 21.6 14ZM21.6 14.8C21.3878 14.8 21.1843 14.8843 21.0343 15.0343C20.8843 15.1844 20.8 15.3879 20.8 15.6C20.8 15.8122 20.8843 16.0157 21.0343 16.1657C21.1843 16.3157 21.3878 16.4 21.6 16.4C21.8122 16.4 22.0157 16.3157 22.1657 16.1657C22.3157 16.0157 22.4 15.8122 22.4 15.6C22.4 15.3879 22.3157 15.1844 22.1657 15.0343C22.0157 14.8843 21.8122 14.8 21.6 14.8ZM24 16.4C23.7878 16.4 23.5843 16.4843 23.4343 16.6343C23.2843 16.7844 23.2 16.9879 23.2 17.2C23.2 17.4122 23.2843 17.6157 23.4343 17.7657C23.5843 17.9157 23.7878 18 24 18C24.2122 18 24.4157 17.9157 24.5657 17.7657C24.7157 17.6157 24.8 17.4122 24.8 17.2C24.8 16.9879 24.7157 16.7844 24.5657 16.6343C24.4157 16.4843 24.2122 16.4 24 16.4ZM21.6 18C21.3878 18 21.1843 18.0843 21.0343 18.2343C20.8843 18.3844 20.8 18.5879 20.8 18.8C20.8 19.0122 20.8843 19.2157 21.0343 19.3657C21.1843 19.5157 21.3878 19.6 21.6 19.6C21.8122 19.6 22.0157 19.5157 22.1657 19.3657C22.3157 19.2157 22.4 19.0122 22.4 18.8C22.4 18.5879 22.3157 18.3844 22.1657 18.2343C22.0157 18.0843 21.8122 18 21.6 18ZM26.4 18C26.1878 18 25.9843 18.0843 25.8343 18.2343C25.6843 18.3844 25.6 18.5879 25.6 18.8C25.6 19.0122 25.6843 19.2157 25.8343 19.3657C25.9843 19.5157 26.1878 19.6 26.4 19.6C26.6122 19.6 26.8157 19.5157 26.9657 19.3657C27.1157 19.2157 27.2 19.0122 27.2 18.8C27.2 18.5879 27.1157 18.3844 26.9657 18.2343C26.8157 18.0843 26.6122 18 26.4 18ZM24 19.6C23.7878 19.6 23.5843 19.6843 23.4343 19.8343C23.2843 19.9844 23.2 20.1879 23.2 20.4C23.2 20.6122 23.2843 20.8157 23.4343 20.9657C23.5843 21.1157 23.7878 21.2 24 21.2C24.2122 21.2 24.4157 21.1157 24.5657 20.9657C24.7157 20.8157 24.8 20.6122 24.8 20.4C24.8 20.1879 24.7157 19.9844 24.5657 19.8343C24.4157 19.6843 24.2122 19.6 24 19.6ZM21.6 21.2C21.3878 21.2 21.1843 21.2843 21.0343 21.4343C20.8843 21.5844 20.8 21.7879 20.8 22C20.8 22.2122 20.8843 22.4157 21.0343 22.5657C21.1843 22.7157 21.3878 22.8 21.6 22.8C21.8122 22.8 22.0157 22.7157 22.1657 22.5657C22.3157 22.4157 22.4 22.2122 22.4 22C22.4 21.7879 22.3157 21.5844 22.1657 21.4343C22.0157 21.2843 21.8122 21.2 21.6 21.2ZM26.4 21.2C26.1878 21.2 25.9843 21.2843 25.8343 21.4343C25.6843 21.5844 25.6 21.7879 25.6 22C25.6 22.2122 25.6843 22.4157 25.8343 22.5657C25.9843 22.7157 26.1878 22.8 26.4 22.8C26.6122 22.8 26.8157 22.7157 26.9657 22.5657C27.1157 22.4157 27.2 22.2122 27.2 22C27.2 21.7879 27.1157 21.5844 26.9657 21.4343C26.8157 21.2843 26.6122 21.2 26.4 21.2Z" fill="#A7A8AA"/>
</svg>
