<svg width="44" height="44" viewBox="0 0 44 44" fill="none" xmlns="http://www.w3.org/2000/svg">
<g clip-path="url(#clip0_5591_72227)">
<path d="M28.4491 24.9607H16.5601C15.7701 24.9607 15.1678 24.7165 14.7684 24.3408C14.3725 23.9684 14.125 23.4198 14.125 22.7046V14.4667C14.125 13.7465 14.373 13.1984 14.7679 12.8277C15.1667 12.4534 15.7688 12.2107 16.5601 12.2107H28.4491C29.2404 12.2107 29.8396 12.4533 30.2358 12.8268C30.6283 13.1969 30.875 13.745 30.875 14.4667V22.7046C30.875 23.4212 30.6288 23.97 30.2353 24.3417C29.8385 24.7166 29.2391 24.9607 28.4491 24.9607Z" stroke="#A7A8AA" stroke-width="1.25"/>
</g>
<path d="M29.4799 31.07H15.5201C14.2325 31.07 13.3032 30.7219 12.7029 30.1728C12.1115 29.6317 11.75 28.8141 11.75 27.6818V18.6583C11.75 17.5259 12.1115 16.7083 12.7029 16.1673C13.3032 15.6181 14.2325 15.27 15.5201 15.27H29.4799C30.7675 15.27 31.6968 15.6181 32.2971 16.1673C32.8885 16.7083 33.25 17.5259 33.25 18.6583V27.6818C33.25 28.8141 32.8885 29.6317 32.2971 30.1728C31.6968 30.7219 30.7675 31.07 29.4799 31.07Z" stroke="#A7A8AA" stroke-width="1.5"/>
<defs>
<clipPath id="clip0_5591_72227">
<rect width="18" height="4" fill="white" transform="translate(13.5 11.5857)"/>
</clipPath>
</defs>
</svg>
