<svg width="44" height="44" viewBox="0 0 44 44" fill="none" xmlns="http://www.w3.org/2000/svg">
<g clip-path="url(#clip0_5591_72301)">
<path d="M13.154 30.1662H30.5312C32.6407 30.1662 33.6853 29.1216 33.6853 27.0524V21.5078C33.6853 20.6038 33.5447 20.1819 33.1127 19.5993L29.6473 14.9085C28.5524 13.4118 27.9498 13.0201 26.1619 13.0201H17.5234C15.7355 13.0201 15.1429 13.4118 14.048 14.9085L10.5725 19.5993C10.1507 20.1819 10 20.6038 10 21.5078V27.0524C10 29.1317 11.0547 30.1662 13.154 30.1662ZM21.8426 24.3504C20.3359 24.3504 19.3717 23.0447 19.3717 21.8091V21.779C19.3717 21.327 19.1005 20.9051 18.5379 20.9051H12.1395C11.808 20.9051 11.7377 20.6239 11.8984 20.4029L15.615 15.3002C16.077 14.6574 16.6696 14.4263 17.4029 14.4263H26.2824C27.0157 14.4263 27.6083 14.6574 28.0703 15.3002L31.7869 20.4029C31.9375 20.6239 31.8772 20.9051 31.5457 20.9051H25.1473C24.5848 20.9051 24.3236 21.327 24.3236 21.779V21.8091C24.3236 23.0447 23.3593 24.3504 21.8426 24.3504ZM26.0614 15.9029H17.6239C17.3527 15.9029 17.1417 16.1138 17.1417 16.385C17.1417 16.6562 17.3527 16.8672 17.6239 16.8672H26.0614C26.3326 16.8672 26.5435 16.6562 26.5435 16.385C26.5435 16.1138 26.3326 15.9029 26.0614 15.9029ZM27.3973 18.173H16.2879C16.0067 18.173 15.7857 18.4241 15.7857 18.6953C15.7857 18.9665 16.0067 19.1975 16.2879 19.1975H27.3973C27.6786 19.1975 27.8995 18.9665 27.8995 18.6953C27.8995 18.4241 27.6786 18.173 27.3973 18.173Z" fill="#FAFAFA"/>
</g>
<defs>
<clipPath id="clip0_5591_72301">
<rect width="23.6853" height="17.1663" fill="white" transform="translate(10 13)"/>
</clipPath>
</defs>
</svg>
