<svg width="44" height="44" viewBox="0 0 44 44" fill="none" xmlns="http://www.w3.org/2000/svg">
<g clip-path="url(#clip0_5591_72228)">
<path d="M28.4491 24.965H16.5601C15.7701 24.965 15.1678 24.7208 14.7684 24.3451C14.3725 23.9727 14.125 23.424 14.125 22.7089V14.471C14.125 13.7508 14.373 13.2027 14.7679 12.832C15.1667 12.4577 15.7688 12.215 16.5601 12.215H28.4491C29.2404 12.215 29.8396 12.4576 30.2358 12.8311C30.6283 13.2012 30.875 13.7493 30.875 14.471V22.7089C30.875 23.4255 30.6288 23.9742 30.2353 24.346C29.8385 24.7209 29.2391 24.965 28.4491 24.965Z" stroke="#FAFAFA" stroke-width="1.25"/>
</g>
<path d="M29.4799 31.07H15.5201C14.2325 31.07 13.3032 30.7219 12.7029 30.1728C12.1115 29.6317 11.75 28.8141 11.75 27.6818V18.6583C11.75 17.5259 12.1115 16.7083 12.7029 16.1673C13.3032 15.6181 14.2325 15.27 15.5201 15.27H29.4799C30.7675 15.27 31.6968 15.6181 32.2971 16.1673C32.8885 16.7083 33.25 17.5259 33.25 18.6583V27.6818C33.25 28.8141 32.8885 29.6317 32.2971 30.1728C31.6968 30.7219 30.7675 31.07 29.4799 31.07Z" fill="white" stroke="#FAFAFA" stroke-width="1.5"/>
<defs>
<clipPath id="clip0_5591_72228">
<rect width="18" height="4" fill="white" transform="translate(13.5 11.59)"/>
</clipPath>
</defs>
</svg>
