<svg width="42" height="42" viewBox="0 0 42 42" fill="none" xmlns="http://www.w3.org/2000/svg">
<path fill-rule="evenodd" clip-rule="evenodd" d="M21.002 0.00012207C21.2781 0.000117542 21.502 0.22398 21.502 0.500134L21.5012 18.433L28.2184 1.80516C28.3218 1.54913 28.6132 1.42544 28.8692 1.5289C29.1253 1.63236 29.249 1.92379 29.1456 2.17983L22.4001 18.8777L35.1544 6.13535C35.3498 5.94022 35.6665 5.94027 35.8619 6.13548C36.0573 6.33068 36.0573 6.64712 35.862 6.84225L22.9542 19.7379L40.0958 13.5022C40.3553 13.4078 40.6422 13.5417 40.7367 13.8012C40.8312 14.0607 40.6974 14.3476 40.438 14.442L23.7863 20.4995L41.4999 20.4995C41.7761 20.4995 41.9999 20.7234 41.9999 20.9995C41.9999 21.2757 41.776 21.4995 41.4999 21.4995L23.576 21.4995L40.1978 28.2151C40.4538 28.3185 40.5775 28.6099 40.4741 28.866C40.3706 29.122 40.0792 29.2457 39.8232 29.1423L23.0934 22.383L35.8518 35.1413C36.0471 35.3366 36.0471 35.6531 35.8518 35.8484C35.6566 36.0437 35.34 36.0437 35.1447 35.8484L22.2458 22.9497L28.4854 40.0888C28.5799 40.3483 28.4461 40.6352 28.1866 40.7296C27.9271 40.824 27.6402 40.6902 27.5457 40.4307L21.501 23.8269L21.5003 41.4998C21.5003 41.776 21.2764 41.9999 21.0003 41.9999C20.7241 41.9999 20.5003 41.776 20.5003 41.4999L20.5011 23.5787L13.7891 40.1936C13.6857 40.4496 13.3943 40.5733 13.1383 40.4699C12.8822 40.3664 12.7585 40.075 12.8619 39.8189L19.6341 23.0549L6.86219 35.8149C6.66686 36.01 6.35013 36.01 6.15475 35.8148C5.95936 35.6196 5.95931 35.3031 6.15463 35.108L19.0536 22.2211L1.91067 28.4573C1.6512 28.5517 1.36426 28.4178 1.26978 28.1583C1.17529 27.8988 1.30903 27.6119 1.5685 27.5175L18.1117 21.4995L0.499974 21.4995C0.223838 21.4995 -7.49118e-06 21.2756 1.88028e-10 20.9995C7.51791e-06 20.7233 0.223865 20.4994 0.500001 20.4994L18.4313 20.4995L1.80875 13.7836C1.55271 13.6802 1.42901 13.3887 1.53245 13.1327C1.6359 12.8767 1.92732 12.753 2.18335 12.8564L18.9107 19.6146L6.15347 6.85766C5.95821 6.6624 5.95821 6.34582 6.15347 6.15056C6.34873 5.95529 6.66532 5.95529 6.86058 6.15055L19.7629 19.0526L13.5206 1.90605C13.4261 1.64656 13.5599 1.35966 13.8194 1.26526C14.0789 1.17085 14.3658 1.30468 14.4603 1.56418L20.5013 18.1578L20.502 0.50015C20.502 0.223997 20.7259 0.000126593 21.002 0.00012207Z" fill="white"/>
</svg>
