<svg width="42" height="42" viewBox="0 0 42 42" fill="none" xmlns="http://www.w3.org/2000/svg">
<path fill-rule="evenodd" clip-rule="evenodd" d="M41.8534 0.853526C42.0487 0.658272 42.0487 0.341701 41.8534 0.146445C41.6582 -0.0488124 41.3416 -0.0488151 41.1463 0.146437L20.9985 20.2929L0.85354 0.147056C0.658281 -0.0482112 0.341703 -0.0482146 0.146444 0.147048C-0.0488149 0.342311 -0.0488147 0.658899 0.146445 0.854166L20.2914 20.9999L0.147212 41.1427C-0.0480542 41.338 -0.0480489 41.6546 0.147224 41.8498C0.342497 42.0451 0.659091 42.0451 0.854357 41.8498L20.9985 21.7071L41.1439 41.8533C41.3392 42.0486 41.6558 42.0486 41.851 41.8533C42.0463 41.6581 42.0463 41.3415 41.851 41.1462L21.7056 21L41.8534 0.853526Z" fill="white"/>
</svg>
