<svg width="42" height="42" viewBox="0 0 42 42" fill="none" xmlns="http://www.w3.org/2000/svg">
<path fill-rule="evenodd" clip-rule="evenodd" d="M21.003 0.000167847C21.2791 0.000177296 21.5029 0.224064 21.5029 0.500232L21.5022 19.7945L35.1445 6.14807C35.3398 5.95277 35.6563 5.95275 35.8515 6.14804C36.0467 6.34332 36.0467 6.65995 35.8515 6.85526L22.2073 20.5036L41.4999 20.5042C41.776 20.5042 41.9998 20.7281 41.9998 21.0043C41.9998 21.2804 41.7759 21.5043 41.4998 21.5043L22.2167 21.5037L35.8547 35.1398C36.0499 35.3351 36.0499 35.6516 35.8547 35.8469C35.6594 36.0422 35.3428 36.0422 35.1475 35.8469L21.5021 22.2034L21.5015 41.4998C21.5015 41.776 21.2776 41.9998 21.0015 41.9998C20.7254 41.9998 20.5016 41.7759 20.5016 41.4998L20.5022 22.2091L6.86092 35.8546C6.66568 36.0499 6.34915 36.0499 6.15393 35.8546C5.95871 35.6594 5.95873 35.3427 6.15398 35.1474L19.7937 21.5036L0.500182 21.503C0.224067 21.503 0.00023648 21.2791 0.000244141 21.0029C0.000251285 20.7267 0.224093 20.5029 0.500209 20.5029L19.8021 20.5035L6.15424 6.8575C5.95897 6.66225 5.95898 6.34569 6.15426 6.15043C6.34953 5.95518 6.66614 5.95517 6.86141 6.15042L20.5023 19.7895L20.503 0.500198C20.503 0.224029 20.7268 0.000158378 21.003 0.000167847Z" fill="white"/>
</svg>
