<svg width="90" height="90" viewBox="0 0 90 90" fill="none" xmlns="http://www.w3.org/2000/svg">
<g id="Union" filter="url(#filter0_d_1312_79682)">
<path fill-rule="evenodd" clip-rule="evenodd" d="M45.4989 24.5003C45.4989 24.2242 45.2751 24.0003 44.9989 24.0003C44.7228 24.0003 44.4989 24.2242 44.4989 24.5003L44.4984 39.2944L41.9305 24.7249C41.8826 24.4529 41.6233 24.2713 41.3513 24.3193C41.0794 24.3673 40.8978 24.6266 40.9457 24.8986L43.5116 39.4562L38.4566 25.5646C38.3622 25.3051 38.0753 25.1713 37.8158 25.2658C37.5563 25.3603 37.4225 25.6472 37.5169 25.9067L42.8946 40.6851L34.5622 27.3499C34.4158 27.1158 34.1074 27.0445 33.8732 27.1909C33.639 27.3372 33.5678 27.6457 33.7141 27.8799L42.2496 41.54L30.8608 30.1513C30.6656 29.956 30.349 29.956 30.1537 30.1513C29.9585 30.3465 29.9585 30.6631 30.1537 30.8584L40.9771 41.6817L28.2859 33.1217C28.057 32.9673 27.7462 33.0277 27.5918 33.2566C27.4374 33.4855 27.4978 33.7963 27.7267 33.9507L40.781 42.7556L26.1814 36.857C25.9254 36.7536 25.634 36.8773 25.5305 37.1333C25.4271 37.3893 25.5508 37.6808 25.8068 37.7842L39.9998 43.5185L24.973 40.5978C24.7019 40.5452 24.4394 40.7222 24.3867 40.9932C24.334 41.2643 24.5111 41.5268 24.7821 41.5795L39.7977 44.4979L24.5004 44.498C24.2242 44.498 24.0004 44.7219 24.0004 44.998C24.0004 45.2742 24.2242 45.498 24.5004 45.498L39.2878 45.4979L24.7251 48.0658C24.4531 48.1137 24.2715 48.3731 24.3195 48.645C24.3674 48.917 24.6268 49.0985 24.8987 49.0506L39.4529 46.4842L25.5659 51.5383C25.3064 51.6327 25.1726 51.9197 25.267 52.1791C25.3615 52.4386 25.6484 52.5724 25.9079 52.478L40.7057 47.0925L27.3511 55.4363C27.1169 55.5826 27.0457 55.8911 27.192 56.1253C27.3384 56.3594 27.6469 56.4307 27.881 56.2843L41.5459 47.7467L30.1527 59.1384C29.9574 59.3337 29.9574 59.6502 30.1527 59.8455C30.348 60.0407 30.6646 60.0408 30.8599 59.8455L41.6834 49.0234L33.1236 61.7119C32.9692 61.9408 33.0296 62.2516 33.2586 62.406C33.4875 62.5604 33.7983 62.5 33.9527 62.271L42.7507 49.2294L36.8564 63.819C36.7529 64.075 36.8766 64.3665 37.1327 64.4699C37.3887 64.5734 37.6801 64.4497 37.7836 64.1936L43.5167 50.003L40.5963 65.0272C40.5436 65.2983 40.7206 65.5608 40.9917 65.6135C41.2627 65.6662 41.5252 65.4891 41.5779 65.2181L44.4981 50.1952L44.4976 65.4996C44.4976 65.7757 44.7214 65.9996 44.9975 65.9996C45.2737 65.9995 45.4975 65.7757 45.4976 65.4995L45.498 50.7268L48.0624 65.2762C48.1103 65.5481 48.3697 65.7297 48.6416 65.6817C48.9135 65.6338 49.0951 65.3744 49.0472 65.1025L46.4803 50.5389L51.5375 64.4365C51.6319 64.696 51.9188 64.8298 52.1783 64.7353C52.4378 64.6409 52.5716 64.3539 52.4771 64.0944L47.0868 49.2813L55.4407 62.6507C55.587 62.8849 55.8955 62.9561 56.1297 62.8098C56.3639 62.6635 56.4351 62.355 56.2888 62.1208L47.7482 48.4527L59.1456 59.85C59.3409 60.0452 59.6575 60.0452 59.8527 59.85C60.048 59.6547 60.048 59.3381 59.8527 59.1429L49.0274 48.3176L61.718 56.8772C61.9469 57.0316 62.2577 56.9712 62.4121 56.7423C62.5665 56.5134 62.5061 56.2026 62.2772 56.0482L49.2287 47.2472L63.8221 53.1433C64.0782 53.2467 64.3696 53.123 64.473 52.867C64.5765 52.611 64.4528 52.3196 64.1967 52.2161L50.0027 46.4814L65.0287 49.4019C65.2997 49.4546 65.5622 49.2775 65.6149 49.0065C65.6676 48.7354 65.4906 48.473 65.2195 48.4203L50.1837 45.4979L65.4997 45.4978C65.7759 45.4978 65.9997 45.2739 65.9998 44.9978C65.9997 44.7216 65.7759 44.4978 65.4997 44.4978L50.718 44.4979L65.2751 41.931C65.5471 41.8831 65.7286 41.6237 65.6807 41.3518C65.6327 41.0798 65.3734 40.8983 65.1015 40.9462L50.5377 43.5142L64.4347 38.4566C64.6941 38.3621 64.8279 38.0752 64.7335 37.8157C64.639 37.5563 64.3521 37.4225 64.0926 37.5169L49.3059 42.8984L62.6511 34.5604C62.8853 34.4141 62.9565 34.1057 62.8101 33.8715C62.6638 33.6373 62.3553 33.5661 62.1211 33.7124L48.4599 42.2477L59.853 30.8562C60.0482 30.661 60.0482 30.3444 59.8529 30.1491C59.6577 29.9539 59.3411 29.9539 59.1458 30.1491L48.3207 40.9728L56.8818 28.2824C57.0362 28.0535 56.9758 27.7427 56.7468 27.5883C56.5179 27.4339 56.2071 27.4943 56.0527 27.7232L47.2405 40.7858L53.1413 26.1802C53.2448 25.9242 53.1211 25.6328 52.865 25.5293C52.609 25.4258 52.3176 25.5495 52.2141 25.8056L46.4802 39.9982L49.4009 24.9726C49.4536 24.7016 49.2766 24.4391 49.0055 24.3864C48.7344 24.3337 48.472 24.5107 48.4193 24.7818L45.4984 39.8082L45.4989 24.5003Z" fill="url(#paint0_linear_1312_79682)"/>
</g>
<defs>
<filter id="filter0_d_1312_79682" x="0.000366211" y="0.000305176" width="89.9994" height="89.9993" filterUnits="userSpaceOnUse" color-interpolation-filters="sRGB">
<feFlood flood-opacity="0" result="BackgroundImageFix"/>
<feColorMatrix in="SourceAlpha" type="matrix" values="0 0 0 0 0 0 0 0 0 0 0 0 0 0 0 0 0 0 127 0" result="hardAlpha"/>
<feOffset/>
<feGaussianBlur stdDeviation="12"/>
<feComposite in2="hardAlpha" operator="out"/>
<feColorMatrix type="matrix" values="0 0 0 0 0.576471 0 0 0 0 0.886275 0 0 0 0 0.764706 0 0 0 0.5 0"/>
<feBlend mode="normal" in2="BackgroundImageFix" result="effect1_dropShadow_1312_79682"/>
<feBlend mode="normal" in="SourceGraphic" in2="effect1_dropShadow_1312_79682" result="shape"/>
</filter>
<linearGradient id="paint0_linear_1312_79682" x1="45.0001" y1="24.0003" x2="45.0001" y2="65.9997" gradientUnits="userSpaceOnUse">
<stop stop-color="#C2FCF5"/>
<stop offset="0.604167" stop-color="#B5F8E6"/>
<stop offset="1" stop-color="#90EAC7"/>
</linearGradient>
</defs>
</svg>
