<svg width="32" height="32" viewBox="0 0 32 32" fill="none" xmlns="http://www.w3.org/2000/svg">
<rect width="32" height="32" rx="16" fill="#C9E9BE"/>
<g clip-path="url(#clip0_1539_145334)">
<path d="M16.0262 5.53026L16.0261 5.53026C15.8562 5.52533 15.6917 5.58936 15.5692 5.70699C15.4454 5.82577 15.3768 5.9907 15.3768 6.16019V9.76297C15.3693 9.82064 15.3693 9.87975 15.3768 9.93741V14.0593L11.2068 18.2293L9.25223 16.2748C9.13156 16.1541 8.96684 16.0877 8.79711 16.0902L8.79705 16.0902C8.63205 16.0927 8.47679 16.1593 8.36135 16.2748L4.0425 20.5936C3.87863 20.751 3.81229 20.9864 3.87108 21.2058C3.92795 21.4269 4.10009 21.599 4.32119 21.6559C4.54058 21.7147 4.77594 21.6483 4.93337 21.4845L8.80679 17.6111L10.3159 19.1202L4.04248 25.3936C3.87863 25.551 3.81229 25.7864 3.87108 26.0058C3.92796 26.2269 4.1001 26.399 4.32119 26.4559C4.54058 26.5147 4.77592 26.4483 4.93335 26.2845L10.0508 21.1671L12.1503 22.2169L12.2333 22.2583L12.3074 22.2027L14.0868 20.8677L15.9168 22.2402L16.0068 22.3077L16.0968 22.2402L17.9268 20.8677L19.7061 22.2027L19.7803 22.2583L19.8632 22.2169L21.9628 21.1671L27.0802 26.2845C27.2377 26.4484 27.4731 26.5147 27.6925 26.4559C27.9135 26.399 28.0856 26.2268 28.1425 26.0058C28.2013 25.7864 28.1349 25.551 27.9711 25.3936L21.6977 19.1202L23.2068 17.6111L27.0802 21.4845C27.2377 21.6484 27.473 21.7147 27.6924 21.6559C27.9135 21.599 28.0856 21.4269 28.1425 21.2058C28.2013 20.9864 28.1349 20.751 27.9711 20.5936L23.6522 16.2748C23.5316 16.1541 23.3668 16.0877 23.1971 16.0902L23.1971 16.0902C23.0321 16.0927 22.8768 16.1593 22.7613 16.2748L20.8068 18.2293L16.6368 14.0593V10.2767L20.558 8.73163L20.5582 8.73154C20.7944 8.63808 20.9494 8.41408 20.9567 8.16335L20.9567 8.16331C20.9641 7.90951 20.8187 7.67835 20.5904 7.57279L20.59 7.57263L16.2713 5.58947C16.1938 5.55224 16.1097 5.53272 16.0262 5.53026ZM18.0168 19.3602L17.9268 19.2927L17.8368 19.3602L16.0068 20.7327L14.1768 19.3602L14.0868 19.2927L13.9968 19.3602L12.1003 20.7821L10.9894 20.2266L11.5719 19.6441C11.6359 19.6009 11.6893 19.5471 11.7326 19.4872L16.0068 15.2111L20.2829 19.4853C20.3262 19.5494 20.3799 19.6028 20.44 19.6461L21.0237 20.2268L19.9132 20.7821L18.0168 19.3602ZM16.6368 7.14397L18.7219 8.09988L16.6368 8.92285V7.14397Z" fill="#111010" stroke="#111010" stroke-width="0.3"/>
</g>
<defs>
<clipPath id="clip0_1539_145334">
<rect width="24" height="24" fill="white" transform="translate(4 4)"/>
</clipPath>
</defs>
</svg>
