<svg width="42" height="42" viewBox="0 0 42 42" fill="none" xmlns="http://www.w3.org/2000/svg">
<path fill-rule="evenodd" clip-rule="evenodd" d="M1.3125 2.625C2.03737 2.625 2.625 2.03737 2.625 1.3125C2.625 0.587626 2.03737 0 1.3125 0C0.587626 0 0 0.587626 0 1.3125C0 2.03737 0.587626 2.625 1.3125 2.625ZM22.3125 21C22.3125 21.7249 21.7249 22.3125 21 22.3125C20.2751 22.3125 19.6875 21.7249 19.6875 21C19.6875 20.2751 20.2751 19.6875 21 19.6875C21.7249 19.6875 22.3125 20.2751 22.3125 21ZM2.625 40.6875C2.625 41.4124 2.03737 42 1.3125 42C0.587626 42 0 41.4124 0 40.6875C0 39.9626 0.587626 39.375 1.3125 39.375C2.03737 39.375 2.625 39.9626 2.625 40.6875ZM42 1.3125C42 2.03737 41.4124 2.625 40.6875 2.625C39.9626 2.625 39.375 2.03737 39.375 1.3125C39.375 0.587626 39.9626 0 40.6875 0C41.4124 0 42 0.587626 42 1.3125ZM40.6875 42C41.4124 42 42 41.4124 42 40.6875C42 39.9626 41.4124 39.375 40.6875 39.375C39.9626 39.375 39.375 39.9626 39.375 40.6875C39.375 41.4124 39.9626 42 40.6875 42Z" fill="white"/>
</svg>
