<svg width="44" height="44" viewBox="0 0 44 44" fill="none" xmlns="http://www.w3.org/2000/svg">
<g clip-path="url(#clip0_5591_72300)">
<path d="M13.154 30.1662H30.5312C32.6407 30.1662 33.6853 29.1216 33.6853 27.0524V21.106C33.6853 20.202 33.5647 19.75 33.1127 19.1975L29.6473 14.9085C28.4721 13.462 27.9498 13.0201 26.1619 13.0201H17.5234C15.7355 13.0201 15.2232 13.462 14.048 14.9085L10.5725 19.1975C10.1306 19.75 10 20.202 10 21.106V27.0524C10 29.1317 11.0547 30.1662 13.154 30.1662ZM13.1741 28.5491C12.1696 28.5491 11.6172 28.0167 11.6172 26.9721V21.9698H17.9855C18.2266 23.8482 19.8036 25.2343 21.8426 25.2343C23.8817 25.2343 25.4587 23.8381 25.6998 21.9698H32.0681V26.9721C32.0681 28.0167 31.5055 28.5491 30.5112 28.5491H13.1741ZM21.8426 23.7478C20.4264 23.7478 19.5123 22.5123 19.5123 21.3471V21.317C19.5123 20.8951 19.2612 20.5033 18.7388 20.5033H12.1194C11.7879 20.5033 11.7176 20.212 11.8884 20.0011L15.615 15.3002C16.1071 14.6774 16.6696 14.4263 17.4029 14.4263H26.2824C27.0157 14.4263 27.5781 14.6774 28.0703 15.3002L31.8069 20.0011C31.9676 20.212 31.9074 20.5033 31.5759 20.5033H24.9464C24.4241 20.5033 24.1831 20.8951 24.1831 21.317V21.3471C24.1831 22.5123 23.269 23.7478 21.8426 23.7478ZM26.0614 15.9029H17.6239C17.3527 15.9029 17.1417 16.1138 17.1417 16.385C17.1417 16.6562 17.3527 16.8672 17.6239 16.8672H26.0614C26.3326 16.8672 26.5435 16.6562 26.5435 16.385C26.5435 16.1138 26.3326 15.9029 26.0614 15.9029ZM27.3973 18.173H16.2879C16.0067 18.173 15.7857 18.4241 15.7857 18.6953C15.7857 18.9665 16.0067 19.1975 16.2879 19.1975H27.3973C27.6786 19.1975 27.8995 18.9665 27.8995 18.6953C27.8995 18.4241 27.6786 18.173 27.3973 18.173Z" fill="#A7A8AA"/>
</g>
<defs>
<clipPath id="clip0_5591_72300">
<rect width="23.6853" height="17.1663" fill="white" transform="translate(10 13)"/>
</clipPath>
</defs>
</svg>
